<!DOCTYPE svg PUBLIC "-//W3C//DTD SVG 1.1//EN" "http://www.w3.org/Graphics/SVG/1.1/DTD/svg11.dtd">
<!-- Uploaded to: SVG Repo, www.svgrepo.com, Transformed by: SVG Repo Mixer Tools -->
<svg height="800px" width="800px" version="1.1" id="Layer_1" xmlns="http://www.w3.org/2000/svg" xmlns:xlink="http://www.w3.org/1999/xlink" viewBox="-28.03 -28.03 336.35 336.35" xml:space="preserve" fill="#000000" stroke="#000000" stroke-width="0.00280291" transform="rotate(0)matrix(1, 0, 0, 1, 0, 0)">
<g id="SVGRepo_bgCarrier" stroke-width="0" transform="translate(0,0), scale(1)">
<path transform="translate(-28.03, -28.03), scale(10.5109375)" d="M16,31.407139781448578C19.098523647235467,31.338257088180086,20.862300234071043,27.89021663730064,23.0278706516754,25.673034104375986C24.796217568754034,23.862542113524363,26.99238653223373,22.20548912041974,27.423250107984778,19.71163895507893C27.833951805272047,17.33448629393728,26.379704622117085,15.118775951059758,25.21646520905763,13.005388923931845C24.255972096487547,11.260353756654904,22.55593458164836,10.229618015529667,21.33705681163594,8.654171495936767C19.401896178221957,6.152901754398874,19.141276399745824,1.4582376395446803,16.000000000000004,1.092752239770359C12.99331602104111,0.7429265777771153,11.586362398148317,4.948513540096313,9.677313165435374,7.297568152104132C8.282925060730909,9.013340460202267,6.991882491879878,10.751352282940152,6.415833898894206,12.885915661782986C5.863612191975042,14.93218788073284,6.125066758982737,17.00136036786089,6.49540007427753,19.088231720681048C6.928768536846871,21.530313468124604,7.226298279263282,24.02693859373436,8.741379231329088,25.99063439355521C10.631796776656618,28.440803797774663,12.906090192068554,31.47591990532798,16,31.407139781448578" fill="#403D39" strokewidth="0"/>
</g>
<g id="SVGRepo_tracerCarrier" stroke-linecap="round" stroke-linejoin="round" stroke="#CCCCCC" stroke-width="0.560582"/>
<g id="SVGRepo_iconCarrier"> <g> <path style="fill:#CCC5B9;" d="M84.373,195.442c13.083,13.03,17.02,34.461,3.947,47.5c-13.083,13.03-52.514,27.548-65.596,14.518 c-13.074-13.03,1.505-52.321,14.579-65.351C50.384,179.078,71.299,182.403,84.373,195.442z"/> <path style="fill:#EB5E28;" d="M205.178,166.468c19.698,40.84-28.37,135.901-50.597,109.001 c-9.013-10.904-8.418-28.3-31.949-50.702c-0.035,0.14,8.567,1.523,18.639-7.596C164.513,199.266,205.178,166.617,205.178,166.468z"/> <path style="fill:#EB5E28;" d="M122.404,75.004C78.256,54.999-23.998,102.753,5.143,125.216 c11.814,9.11,30.558,8.611,54.842,32.369c-0.149,0.035-1.68-8.611,8.103-18.683C87.243,115.643,122.238,75.004,122.404,75.004z"/> <path style="fill:#EB5E28;" d="M102.96,70.471l-1.908-0.096c-9.687,11.831-33.358,40.998-47.788,59.453 c-5.916,6.423-7.517,12.26-7.858,15.708c2.827,1.943,5.741,4.183,8.751,6.756c0.735-3.483,2.669-8.34,7.508-13.599 c18.421-23.575,52.05-64.791,52.208-64.783C110.573,72.335,106.862,71.259,102.96,70.471z"/> <path style="fill:#EB5E28;" d="M205.45,167.115c-5.758,4.848-42.249,34.767-63.934,51.84c-7.167,6.633-13.529,7.876-16.705,7.998 c3.115,3.133,5.811,6.169,8.103,9.101c2.853,0.044,9.722-0.858,17.475-8.025c18.149-14.299,46.572-37.497,58.762-47.57 C208.495,175.63,207.287,171.123,205.45,167.115z"/> <path style="fill:#CCC5B9;" d="M53.412,184.232c1.82,8.156,7.412,17.878,16.119,26.568c8.663,8.646,18.351,14.211,26.498,16.067 c1.383-10.956-3.15-22.953-11.656-31.424C75.911,187.006,64.185,182.736,53.412,184.232z"/> <path style="fill:#252422;" d="M278.528,1.532c6.581,6.222-3.107,98.596-66.244,161.313c-39.09,38.836-65.019,53.87-71.223,59.252 c-17.16,7.78-28.545,11.962-62.551-21.833c-33.927-33.708-27.399-43.054-19.873-59.2c5.583-6.266,21.046-32.299,60.145-71.144 C181.892,7.211,271.641-4.576,278.528,1.532z"/> <path style="fill:#403D39;" d="M199.604,80.316c13.608,13.634,13.608,35.738,0,49.381c-13.616,13.634-35.677,13.634-49.294,0 c-13.608-13.643-13.608-35.747,0-49.381C163.927,66.673,185.988,66.673,199.604,80.316z"/> <path style="fill:#FFFCF2;" d="M187.397,92.689c6.861,6.817,6.861,17.869,0,24.686c-6.852,6.817-17.983,6.817-24.852,0 c-6.852-6.817-6.852-17.869,0-24.686C169.422,85.872,180.545,85.872,187.397,92.689z"/> </g> </g>
</svg>